<svg width="24" height="20" viewBox="0 0 24 20" fill="none" xmlns="http://www.w3.org/2000/svg">
<path d="M3.67289 0.832031C3.67225 0.832031 3.67152 0.832031 3.67087 0.832031C3.44388 0.832031 3.23039 0.920516 3.06917 1.08132C2.90618 1.24391 2.81641 1.4604 2.81641 1.69086V14.5689C2.81641 15.0411 3.2021 15.4263 3.67629 15.4275C5.67533 15.4322 9.02451 15.8489 11.335 18.2668V4.78954C11.335 4.62946 11.2941 4.47907 11.2169 4.35463C9.32059 1.30072 5.67646 0.836718 3.67289 0.832031Z" fill="#472907"/>
<path d="M21.1865 14.569V1.69086C21.1865 1.4604 21.0967 1.24391 20.9337 1.08132C20.7725 0.920516 20.5588 0.832031 20.3321 0.832031C20.3313 0.832031 20.3306 0.832031 20.33 0.832031C18.3265 0.836799 14.6824 1.3008 12.7859 4.35471C12.7088 4.47915 12.668 4.62954 12.668 4.78962V18.2668C14.9784 15.8489 18.3276 15.4322 20.3267 15.4275C20.8008 15.4263 21.1865 15.0411 21.1865 14.569Z" fill="#472907"/>
<path d="M23.1435 3.80176H22.5208V14.5687C22.5208 15.7745 21.5384 16.7577 20.3308 16.7607C18.6352 16.7647 15.8394 17.0963 13.8594 18.9703C17.2839 18.1318 20.8939 18.6769 22.9513 19.1457C23.2082 19.2042 23.4736 19.1438 23.6795 18.9797C23.8845 18.8161 24.0022 18.5715 24.0022 18.309V4.66043C24.0023 4.18697 23.617 3.80176 23.1435 3.80176Z" fill="#472907"/>
<path d="M1.48333 14.5687V3.80176H0.860623C0.387247 3.80176 0.00195312 4.18697 0.00195312 4.66043V18.3087C0.00195312 18.5713 0.11961 18.8159 0.324702 18.9795C0.530359 19.1435 0.795572 19.2042 1.05287 19.1455C3.11025 18.6766 6.72036 18.1316 10.1447 18.9701C8.16473 17.0961 5.36892 16.7646 3.67332 16.7606C2.4658 16.7577 1.48333 15.7745 1.48333 14.5687Z" fill="#472907"/>
</svg>
