<svg width="52" height="52" viewBox="0 0 52 52" fill="none" xmlns="http://www.w3.org/2000/svg">
<rect width="52" height="52" rx="26" fill="url(#paint0_linear_193_1321)"/>
<rect x="0.5" y="0.5" width="51" height="51" rx="25.5" stroke="#858585" stroke-opacity="0.2"/>
<path d="M25.7415 10.1228C24.6747 11.7703 23.9382 13.5486 23.5487 15.354C22.4092 13.8872 20.9788 12.6044 19.3178 11.5926C19.2389 11.5417 19.1402 11.5376 19.0561 11.5771C18.973 11.6207 18.9158 11.6996 18.9044 11.79C18.6655 13.7325 18.7746 15.651 19.2015 17.4481C17.5478 16.6337 15.6999 16.1008 13.746 15.9024C13.6369 15.891 13.5372 15.946 13.4842 16.0343C13.4208 16.105 13.3949 16.2057 13.4271 16.3044C14.0514 18.1627 14.981 19.8434 16.1465 21.2717C14.2986 21.2509 12.406 21.5709 10.5715 22.2388C10.4843 22.27 10.4199 22.3447 10.3981 22.4362C10.3783 22.5265 10.4053 22.6231 10.4708 22.6907C11.8502 24.0909 13.4167 25.2034 15.0735 25.9908C13.4146 26.7761 11.8461 27.8865 10.4646 29.2857C10.3918 29.3584 10.3711 29.4644 10.3981 29.5578C10.4085 29.6596 10.4749 29.75 10.5767 29.7864C12.4122 30.4501 14.3048 30.7669 16.1528 30.7431C14.9904 32.1724 14.0638 33.8552 13.4427 35.7156C13.4136 35.8028 13.4312 35.9005 13.4884 35.9742C13.5455 36.0469 13.6379 36.0843 13.7283 36.075C15.6822 35.8797 17.5322 35.351 19.1869 34.5387C18.7569 36.3347 18.6447 38.2532 18.8816 40.1947C18.894 40.3016 18.9657 40.3847 19.0592 40.419C19.1433 40.4699 19.2524 40.4751 19.3438 40.419C21.0027 39.4031 22.431 38.1182 23.5674 36.6504C23.96 38.4547 24.6996 40.231 25.7695 41.8753C25.8183 41.9522 25.9056 42 25.998 42C26.0905 42 26.1777 41.9533 26.2286 41.8753C27.2986 40.231 28.0381 38.4558 28.4308 36.6515C29.5672 38.1182 30.9955 39.4031 32.6544 40.419C32.7468 40.4751 32.858 40.4689 32.9431 40.4169C33.0335 40.3816 33.1021 40.2996 33.1156 40.1947C33.1987 39.5267 33.2381 38.8588 33.2381 38.1982C33.2381 36.9444 33.0927 35.7156 32.8112 34.5397C34.4659 35.351 36.3149 35.8807 38.2688 36.076C38.3592 36.0854 38.4506 36.049 38.5088 35.9752C38.5482 35.9264 38.568 35.8651 38.568 35.8039C38.568 35.7748 38.5638 35.7446 38.5565 35.7166C37.9343 33.8562 37.0067 32.1734 35.8444 30.7441C37.6923 30.768 39.587 30.4512 41.4225 29.7874C41.5274 29.75 41.5959 29.6534 41.6022 29.5475C41.6074 29.5256 41.6115 29.5028 41.6115 29.4799C41.6115 29.4114 41.5876 29.3397 41.5326 29.2867C40.1521 27.8875 38.5836 26.7761 36.9236 25.9918C38.5815 25.2044 40.1469 24.0919 41.5284 22.6917C41.5793 22.6408 41.6074 22.5691 41.6074 22.4985C41.6074 22.4787 41.6032 22.459 41.6001 22.4393C41.5803 22.3489 41.5128 22.2741 41.4266 22.2419C39.5943 21.574 37.7027 21.253 35.8548 21.2738C37.0192 19.8466 37.9489 18.1648 38.5732 16.3065C38.5804 16.2795 38.5846 16.2473 38.5846 16.2192C38.5846 16.1528 38.5597 16.0894 38.5171 16.0395C38.4651 15.9492 38.3633 15.892 38.2532 15.9035C36.3004 16.1029 34.4514 16.6358 32.7977 17.4502C33.0751 16.2805 33.2184 15.06 33.2184 13.8135C33.2184 13.1476 33.1748 12.4693 33.0917 11.791C33.0802 11.6996 33.0242 11.6217 32.9421 11.5781C32.8548 11.5386 32.7572 11.5428 32.6783 11.5937C31.0173 12.6044 29.5869 13.8872 28.4474 15.3519C28.0568 13.5455 27.3204 11.7682 26.2536 10.1228C26.1975 10.0345 26.0978 9.99192 25.9991 10.0013C25.9014 9.99192 25.8007 10.0345 25.7435 10.1228H25.7415ZM19.3999 12.2907C20.9913 13.3222 22.3489 14.6154 23.4105 16.0811C23.1612 17.6039 23.1591 19.136 23.4157 20.6173C22.4143 19.4955 21.2073 18.5429 19.8518 17.7888C19.3791 16.0541 19.2181 14.1874 19.3999 12.2896V12.2907ZM14.0721 16.4935C15.9886 16.7345 17.7919 17.3068 19.3874 18.1607C19.8247 19.6679 20.4906 21.0754 21.3714 22.3209C19.9619 21.734 18.4432 21.3922 16.883 21.2966C15.6905 19.9338 14.7307 18.3061 14.0721 16.4924V16.4935ZM11.1678 22.6096C12.9721 22.0082 14.8273 21.7506 16.6264 21.8326C17.6621 22.9784 18.8587 23.9361 20.1769 24.658C18.679 24.7422 17.1811 25.0954 15.7404 25.6926C14.1033 24.9801 12.5483 23.9392 11.1678 22.6096ZM11.1283 29.3979C12.5182 28.0527 14.0877 27.0035 15.7404 26.2868C17.1915 26.8903 18.7008 27.2477 20.2101 27.3308C18.8795 28.0558 17.6725 29.0229 16.6295 30.1811C14.8169 30.2652 12.9461 30.0055 11.1273 29.3979H11.1283ZM14.1033 35.4798C14.7577 33.6827 15.7102 32.0675 16.8903 30.714C18.4401 30.6174 19.9463 30.2777 21.3465 29.697C20.4729 30.9331 19.8102 32.3292 19.3739 33.824C17.7898 34.6685 16.0021 35.2377 14.1033 35.4798ZM19.3812 39.7449C19.1953 37.8294 19.3563 35.9451 19.8372 34.1959C21.2042 33.4386 22.4195 32.4809 23.4282 31.3497C23.1674 32.8424 23.1706 34.386 23.4251 35.9202C22.3572 37.4004 20.9881 38.704 19.3812 39.7438V39.7449ZM25.9949 41.2126C24.9946 39.5797 24.3246 37.8242 24.0026 36.0521C24.8907 34.7796 25.568 33.3867 25.9949 31.9241C26.4219 33.3867 27.0981 34.7796 27.9862 36.0521C27.6642 37.8253 26.9942 39.5797 25.9939 41.2126H25.9949ZM32.6118 39.7438C31.0048 38.7051 29.6357 37.4015 28.5679 35.9233C28.6946 35.1577 28.759 34.3901 28.759 33.6266C28.759 32.8631 28.6926 32.0976 28.5606 31.3486C29.5703 32.4809 30.7877 33.4397 32.1568 34.1969C32.6367 35.9451 32.7977 37.8284 32.6107 39.7438H32.6118ZM37.8917 35.4798C35.9919 35.2377 34.2042 34.6695 32.6201 33.824C32.1838 32.3303 31.5211 30.9342 30.6496 29.6981C32.0498 30.2777 33.556 30.6174 35.1048 30.714C36.2848 32.0675 37.2373 33.6817 37.8917 35.4798ZM40.8646 29.3979C39.0448 30.0066 37.174 30.2652 35.3613 30.18C34.3184 29.0229 33.1124 28.0568 31.7839 27.3308C33.2932 27.2477 34.8035 26.8903 36.2536 26.2868C37.9052 27.0025 39.4748 28.0527 40.8646 29.3968V29.3979ZM35.512 25.9908C33.931 26.5745 32.2898 26.855 30.6693 26.7958C30.5322 26.7906 30.4169 26.8882 30.3909 27.0212C30.3608 27.1479 30.4231 27.283 30.5467 27.3359C32.0342 27.9821 33.3888 28.9315 34.5532 30.1198C32.9005 29.9463 31.3102 29.483 29.8664 28.73C29.8508 28.7227 29.8352 28.7164 29.8196 28.7113C29.8186 28.7113 29.8165 28.7102 29.8155 28.7102C29.7365 28.6884 29.6493 28.7019 29.5797 28.7528C29.5745 28.7559 29.5693 28.759 29.5641 28.7632C29.5641 28.7632 29.5641 28.7632 29.563 28.7632C29.5599 28.7663 29.5568 28.7694 29.5537 28.7725C29.5433 28.7819 29.5329 28.7912 29.5246 28.8027C29.5246 28.8037 29.5225 28.8058 29.5215 28.8068C29.5121 28.8193 29.5028 28.8318 29.4955 28.8463C29.4425 28.9502 29.4602 29.0696 29.5308 29.1517C30.5831 30.3909 31.3871 31.8431 31.92 33.4261C30.4927 32.5567 29.2566 31.4515 28.2885 30.1489C28.2054 30.0377 28.0568 30.0076 27.9384 30.071C27.82 30.126 27.7546 30.259 27.7899 30.3909C28.2085 31.9563 28.3093 33.6027 28.1088 35.2492C27.2207 33.8572 26.5891 32.3303 26.266 30.7358C26.266 30.7337 26.266 30.7327 26.266 30.7316C26.266 30.7306 26.266 30.7285 26.266 30.7275C26.266 30.7254 26.265 30.7233 26.264 30.7212C26.2608 30.7077 26.2567 30.6942 26.2515 30.6818C26.2484 30.6745 26.2453 30.6683 26.2421 30.662C26.238 30.6537 26.2338 30.6465 26.2297 30.6392C26.2255 30.6319 26.2203 30.6246 26.2151 30.6174C26.211 30.6111 26.2058 30.6059 26.2016 30.6007C26.1954 30.5935 26.1892 30.5872 26.1819 30.58C26.1767 30.5758 26.1726 30.5717 26.1674 30.5685C26.159 30.5623 26.1507 30.5561 26.1424 30.5498C26.1393 30.5478 26.1352 30.5467 26.132 30.5447C26.0915 30.5218 26.0458 30.5083 25.997 30.5083C25.8692 30.5083 25.756 30.5976 25.728 30.7264C25.4049 32.324 24.7723 33.8541 23.8821 35.2492C23.6816 33.6027 23.7824 31.9563 24.202 30.3909C24.2374 30.26 24.1698 30.124 24.0493 30.0699C23.933 30.0076 23.7845 30.0388 23.7024 30.1489C22.7353 31.4515 21.5002 32.5567 20.074 33.4261C20.608 31.8441 21.4109 30.3909 22.4632 29.1517C22.4652 29.1496 22.4663 29.1475 22.4673 29.1455C22.4736 29.1382 22.4777 29.1309 22.4829 29.1236C22.4881 29.1153 22.4933 29.106 22.4974 29.0977C22.5016 29.0904 22.5047 29.0831 22.5078 29.0759C22.5099 29.0696 22.512 29.0644 22.5141 29.0582C22.5172 29.0499 22.5193 29.0405 22.5213 29.0322C22.5224 29.027 22.5234 29.0229 22.5245 29.0177C22.5265 29.0042 22.5276 28.9896 22.5276 28.9751C22.5276 28.9554 22.5255 28.9346 22.5203 28.9149C22.5182 28.9076 22.5161 28.9013 22.513 28.8941C22.5089 28.8795 22.5037 28.865 22.4964 28.8515C22.4964 28.8515 22.4964 28.8494 22.4954 28.8484C22.4943 28.8453 22.4912 28.8432 22.4902 28.8401C22.4746 28.812 22.4559 28.786 22.431 28.7653C22.3416 28.6894 22.2191 28.6811 22.1235 28.7331C20.6817 29.4851 19.0924 29.9484 17.4398 30.1208C18.6042 28.9325 19.9587 27.9821 21.4462 27.3359C21.5709 27.283 21.6322 27.15 21.6031 27.0233C21.5802 26.8893 21.4639 26.7906 21.3247 26.7958C19.7042 26.856 18.063 26.5745 16.4831 25.9908C18.0641 25.4101 19.7063 25.1328 21.3268 25.1951C21.3268 25.1951 21.3278 25.1951 21.3289 25.1951C21.3424 25.1951 21.3569 25.1951 21.3704 25.192C21.3746 25.192 21.3798 25.192 21.3839 25.1909C21.3985 25.1889 21.413 25.1837 21.4265 25.1795C21.4296 25.1795 21.4317 25.1785 21.4348 25.1774C21.5013 25.1525 21.5584 25.1016 21.5896 25.032C21.5948 25.0206 21.5969 25.0091 21.6 24.9977C21.601 24.9936 21.6031 24.9894 21.6041 24.9842C21.6062 24.9738 21.6072 24.9634 21.6083 24.9531C21.6083 24.9458 21.6114 24.9396 21.6114 24.9333V24.9219C21.6114 24.9053 21.6093 24.8897 21.6062 24.8731C21.6062 24.8689 21.6041 24.8658 21.6041 24.8616C21.601 24.8481 21.5969 24.8346 21.5917 24.8211C21.5917 24.8201 21.5906 24.818 21.5896 24.817C21.5636 24.7536 21.5138 24.6996 21.4452 24.6695C19.9577 24.0265 18.6021 23.0791 17.4367 21.8939C19.0893 22.0643 20.6796 22.5265 22.1235 23.2775C22.2419 23.3388 22.3842 23.3035 22.4642 23.2028C22.5546 23.103 22.5587 22.9483 22.4694 22.8433C21.4192 21.602 20.6184 20.1468 20.0886 18.5616C21.5138 19.4331 22.7467 20.5415 23.7118 21.8482C23.8021 21.9687 23.9735 21.9937 24.0961 21.9033C24.1241 21.8835 24.1449 21.8586 24.1626 21.8316C24.1657 21.8264 24.1698 21.8212 24.173 21.816C24.1781 21.8077 24.1813 21.7984 24.1854 21.789C24.1896 21.7786 24.1937 21.7672 24.1968 21.7558C24.1989 21.7495 24.2 21.7433 24.201 21.7371C24.2041 21.7236 24.2052 21.709 24.2062 21.6945C24.2062 21.6903 24.2072 21.6862 24.2072 21.682C24.2072 21.6789 24.2072 21.6758 24.2072 21.6737C24.2072 21.6685 24.2072 21.6644 24.2062 21.6592C24.2052 21.6436 24.202 21.629 24.1979 21.6135C24.1979 21.6135 24.1979 21.6124 24.1979 21.6114C24.1979 21.6083 24.1968 21.6052 24.1958 21.602C24.1958 21.601 24.1958 21.5989 24.1948 21.5979C23.7751 20.0377 23.6733 18.3944 23.8707 16.7521C24.763 18.1461 25.3976 19.6752 25.7238 21.2728C25.7519 21.4068 25.8703 21.4961 26.0001 21.494C26.131 21.4961 26.2505 21.4078 26.2775 21.2728C26.6036 19.6752 27.2373 18.1461 28.1296 16.7532C28.328 18.3996 28.2241 20.047 27.8034 21.6124C27.8034 21.6124 27.8034 21.6135 27.8034 21.6145C27.7753 21.7194 27.8107 21.8347 27.9042 21.9043C28.0267 21.9947 28.1981 21.9698 28.2885 21.8493C29.2535 20.5446 30.4875 19.4362 31.9137 18.5637C31.3829 20.1478 30.5821 21.6031 29.5308 22.8444C29.4405 22.9493 29.4457 23.1041 29.536 23.2038C29.615 23.3046 29.7583 23.3388 29.8757 23.2775C31.3216 22.5265 32.913 22.0643 34.5667 21.8939C33.4002 23.0802 32.0436 24.0275 30.5561 24.6716C30.5239 24.6851 30.4948 24.7048 30.4709 24.7297C30.393 24.8076 30.366 24.926 30.4117 25.032C30.4273 25.0673 30.4501 25.0974 30.4771 25.1224C30.5291 25.1712 30.5997 25.2013 30.6755 25.1982C32.296 25.1348 33.9372 25.4111 35.5182 25.9918L35.512 25.9908ZM40.8252 22.6096C39.4468 23.9392 37.8907 24.9801 36.2526 25.6926C34.8118 25.0964 33.314 24.7432 31.8161 24.6591C33.1353 23.9382 34.333 22.9794 35.3697 21.8326C37.1677 21.7516 39.0209 22.0082 40.8252 22.6096ZM37.9229 16.4935C37.2664 18.3071 36.3056 19.9348 35.1141 21.2977C33.5518 21.3933 32.0332 21.734 30.6215 22.3209C31.5034 21.0764 32.1703 19.6689 32.6076 18.1617C34.2031 17.3078 36.0064 16.7345 37.9229 16.4935ZM32.5931 12.2907C32.7759 14.1885 32.6159 16.0561 32.1423 17.7909C30.7856 18.546 29.5786 19.4986 28.5752 20.6204C28.705 19.8756 28.7694 19.1184 28.7694 18.3539C28.7694 17.5893 28.7061 16.8383 28.5825 16.08C29.643 14.6144 31.0007 13.3211 32.592 12.2907H32.5931ZM28.0049 15.9471C27.1074 17.2289 26.425 18.6343 25.996 20.1104C25.567 18.6333 24.8835 17.2289 23.986 15.9471C24.308 14.1594 24.9842 12.3894 25.996 10.744C27.0067 12.3894 27.6829 14.1583 28.0049 15.946V15.9471Z" fill="white"/>
<path d="M25.9978 28.0985C27.1572 28.0985 28.0971 27.1586 28.0971 25.9992C28.0971 24.8398 27.1572 23.8999 25.9978 23.8999C24.8383 23.8999 23.8984 24.8398 23.8984 25.9992C23.8984 27.1586 24.8383 28.0985 25.9978 28.0985Z" fill="white"/>
<defs>
<linearGradient id="paint0_linear_193_1321" x1="0" y1="26" x2="52" y2="26" gradientUnits="userSpaceOnUse">
<stop stop-color="#E36D2D"/>
<stop offset="1" stop-color="#A22208"/>
</linearGradient>
</defs>
</svg>
