<svg width="18" height="18" viewBox="0 0 18 18" fill="none" xmlns="http://www.w3.org/2000/svg">
<path d="M17.4502 16.7427L13.5438 12.8363C14.7428 11.4691 15.4043 9.73917 15.4043 7.90381C15.4043 5.90039 14.624 4.01709 13.2075 2.60059C11.791 1.18408 9.90771 0.403809 7.9043 0.403809C5.90088 0.403809 4.01758 1.18408 2.60107 2.60059C1.18457 4.01709 0.404297 5.90039 0.404297 7.90381C0.404297 9.90723 1.18457 11.7905 2.60107 13.207C4.01758 14.6235 5.90088 15.4038 7.9043 15.4038C9.73965 15.4038 11.4696 14.7423 12.8368 13.5433L16.7432 17.4497C16.8408 17.5474 16.9688 17.5962 17.0967 17.5962C17.2246 17.5962 17.3525 17.5474 17.4502 17.4497C17.6455 17.2544 17.6455 16.938 17.4502 16.7427ZM3.30811 12.5C2.08057 11.2722 1.4043 9.63989 1.4043 7.90381C1.4043 6.16772 2.08057 4.5354 3.30811 3.30762C4.53589 2.08008 6.16821 1.40381 7.9043 1.40381C9.64038 1.40381 11.2727 2.08008 12.5005 3.30762C13.728 4.5354 14.4043 6.16772 14.4043 7.90381C14.4043 9.63989 13.728 11.2722 12.5005 12.5C11.2727 13.7275 9.64038 14.4038 7.9043 14.4038C6.16821 14.4038 4.53589 13.7275 3.30811 12.5Z" fill="#1C1C1C"/>
</svg>
