<svg width="20" height="20" viewBox="0 0 20 20" fill="none" xmlns="http://www.w3.org/2000/svg">
<path d="M19.7503 4.99991V7.99991C19.7516 8.09878 19.7332 8.19691 19.6959 8.28851C19.6587 8.38011 19.6035 8.46332 19.5336 8.53324C19.4637 8.60315 19.3805 8.65835 19.2889 8.69556C19.1973 8.73278 19.0992 8.75126 19.0003 8.74991C18.9209 8.76436 18.8396 8.76436 18.7603 8.74991L15.7603 7.74991C15.6636 7.72124 15.5736 7.67335 15.4959 7.60911C15.4181 7.54487 15.3541 7.4656 15.3077 7.37605C15.2612 7.2865 15.2333 7.1885 15.2257 7.08792C15.218 6.98734 15.2307 6.88624 15.263 6.79068C15.2953 6.69512 15.3465 6.60706 15.4137 6.53177C15.4808 6.45647 15.5624 6.39549 15.6537 6.35247C15.7449 6.30945 15.8439 6.28528 15.9447 6.28141C16.0455 6.27753 16.146 6.29403 16.2403 6.32991L17.5303 6.75991C16.7604 5.00941 15.4035 3.58259 13.6939 2.72569C11.9843 1.86878 10.0292 1.63556 8.166 2.06626C6.3028 2.49696 4.64839 3.56456 3.4883 5.08483C2.32821 6.6051 1.73521 8.48265 1.81164 10.3935C1.88807 12.3043 2.62914 14.1285 3.90695 15.5512C5.18477 16.974 6.91916 17.906 8.81081 18.1865C10.7025 18.467 12.6327 18.0784 14.2684 17.0877C15.9041 16.097 17.1426 14.5663 17.7703 12.7599C17.7976 12.6605 17.8451 12.5678 17.9098 12.4876C17.9745 12.4073 18.0551 12.3413 18.1465 12.2936C18.2379 12.2459 18.3381 12.2176 18.441 12.2103C18.5438 12.2031 18.647 12.2172 18.7442 12.2516C18.8413 12.2861 18.9304 12.3402 19.0057 12.4106C19.081 12.481 19.141 12.5662 19.1819 12.6608C19.2228 12.7554 19.2438 12.8574 19.2435 12.9605C19.2432 13.0636 19.2217 13.1655 19.1803 13.2599C18.4433 15.3437 17.02 17.1153 15.144 18.2841C13.268 19.4529 11.0505 19.9496 8.85513 19.6927C6.65977 19.4358 4.61685 18.4406 3.06135 16.8703C1.50584 15.2999 0.530074 13.2476 0.294045 11.0499C0.058015 8.85224 0.575731 6.63956 1.7623 4.77472C2.94887 2.90987 4.73387 1.50355 6.82461 0.786338C8.91535 0.0691269 11.1877 0.0835987 13.2692 0.82738C15.3506 1.57116 17.1176 3.00011 18.2803 4.87991C18.3044 4.70582 18.3904 4.54626 18.5227 4.43052C18.655 4.31479 18.8245 4.25066 19.0003 4.24991C19.1984 4.2525 19.3877 4.33235 19.5278 4.47245C19.6678 4.61254 19.7477 4.8018 19.7503 4.99991Z" fill="#2A2A2A"/>
</svg>
