<svg width="24" height="24" viewBox="0 0 24 24" fill="none" xmlns="http://www.w3.org/2000/svg">
<path d="M14 15C13.7348 14.9998 13.4806 14.8944 13.2931 14.7069C13.1056 14.5194 13.0002 14.2652 13 14V10C13 9.73478 13.1054 9.48043 13.2929 9.29289C13.4804 9.10536 13.7348 9 14 9C14.2652 9 14.5196 9.10536 14.7071 9.29289C14.8946 9.48043 15 9.73478 15 10V14C14.9998 14.2652 14.8944 14.5194 14.7069 14.7069C14.5194 14.8944 14.2652 14.9998 14 15Z" fill="#1C1C1C"/>
<path d="M14 13C13.7348 13 13.4804 12.8946 13.2929 12.7071C13.1054 12.5196 13 12.2652 13 12C13 11.7348 13.1054 11.4804 13.2929 11.2929C13.4804 11.1054 13.7348 11 14 11H22C22.2652 11 22.5196 11.1054 22.7071 11.2929C22.8946 11.4804 23 11.7348 23 12C23 12.2652 22.8946 12.5196 22.7071 12.7071C22.5196 12.8946 22.2652 13 22 13H14Z" fill="#1C1C1C"/>
<path d="M2 13C1.73478 13 1.48043 12.8946 1.29289 12.7071C1.10536 12.5196 1 12.2652 1 12C1 11.7348 1.10536 11.4804 1.29289 11.2929C1.48043 11.1054 1.73478 11 2 11H11C11.2652 11 11.5196 11.1054 11.7071 11.2929C11.8946 11.4804 12 11.7348 12 12C12 12.2652 11.8946 12.5196 11.7071 12.7071C11.5196 12.8946 11.2652 13 11 13H2Z" fill="#1C1C1C"/>
<path d="M9 8C8.73484 7.99982 8.48059 7.89441 8.29309 7.70691C8.10559 7.51941 8.00018 7.26516 8 7V3C8 2.73478 8.10536 2.48043 8.29289 2.29289C8.48043 2.10536 8.73478 2 9 2C9.26522 2 9.51957 2.10536 9.70711 2.29289C9.89464 2.48043 10 2.73478 10 3V7C9.99982 7.26516 9.89441 7.51941 9.70691 7.70691C9.51941 7.89441 9.26516 7.99982 9 8Z" fill="#1C1C1C"/>
<path d="M9 6C8.73478 6 8.48043 5.89464 8.29289 5.70711C8.10536 5.51957 8 5.26522 8 5C8 4.73478 8.10536 4.48043 8.29289 4.29289C8.48043 4.10536 8.73478 4 9 4H22C22.2652 4 22.5196 4.10536 22.7071 4.29289C22.8946 4.48043 23 4.73478 23 5C23 5.26522 22.8946 5.51957 22.7071 5.70711C22.5196 5.89464 22.2652 6 22 6H9Z" fill="#1C1C1C"/>
<path d="M2 6C1.73478 6 1.48043 5.89464 1.29289 5.70711C1.10536 5.51957 1 5.26522 1 5C1 4.73478 1.10536 4.48043 1.29289 4.29289C1.48043 4.10536 1.73478 4 2 4H6C6.26522 4 6.51957 4.10536 6.70711 4.29289C6.89464 4.48043 7 4.73478 7 5C7 5.26522 6.89464 5.51957 6.70711 5.70711C6.51957 5.89464 6.26522 6 6 6H2Z" fill="#1C1C1C"/>
<path d="M9 22C8.73484 21.9998 8.48059 21.8944 8.29309 21.7069C8.10559 21.5194 8.00018 21.2652 8 21V17C8 16.7348 8.10536 16.4804 8.29289 16.2929C8.48043 16.1054 8.73478 16 9 16C9.26522 16 9.51957 16.1054 9.70711 16.2929C9.89464 16.4804 10 16.7348 10 17V21C9.99982 21.2652 9.89441 21.5194 9.70691 21.7069C9.51941 21.8944 9.26516 21.9998 9 22Z" fill="#1C1C1C"/>
<path d="M9 20C8.73478 20 8.48043 19.8946 8.29289 19.7071C8.10536 19.5196 8 19.2652 8 19C8 18.7348 8.10536 18.4804 8.29289 18.2929C8.48043 18.1054 8.73478 18 9 18H22C22.2652 18 22.5196 18.1054 22.7071 18.2929C22.8946 18.4804 23 18.7348 23 19C23 19.2652 22.8946 19.5196 22.7071 19.7071C22.5196 19.8946 22.2652 20 22 20H9Z" fill="#1C1C1C"/>
<path d="M2 20C1.73478 20 1.48043 19.8946 1.29289 19.7071C1.10536 19.5196 1 19.2652 1 19C1 18.7348 1.10536 18.4804 1.29289 18.2929C1.48043 18.1054 1.73478 18 2 18H6C6.26522 18 6.51957 18.1054 6.70711 18.2929C6.89464 18.4804 7 18.7348 7 19C7 19.2652 6.89464 19.5196 6.70711 19.7071C6.51957 19.8946 6.26522 20 6 20H2Z" fill="#1C1C1C"/>
</svg>
