<svg width="131" height="52" viewBox="0 0 131 52" fill="none" xmlns="http://www.w3.org/2000/svg">
<rect width="131" height="52" rx="26" fill="url(#paint0_linear_153_115)"/>
<rect x="0.5" y="0.5" width="130" height="51" rx="25.5" stroke="#858585" stroke-opacity="0.2"/>
<path d="M62.9928 36.7245L56.2754 17.6665H59.5004L64.5652 33.6326H64.5923L69.63 17.6665H72.722L66.1648 36.7245H62.9928Z" fill="white"/>
<path d="M74.8809 36.7245V17.6665H88.3686V20.1989H77.8137V25.61H87.0634V28.1424H77.8137V34.1931H88.6359V36.7255H74.8819L74.8809 36.7245Z" fill="white"/>
<path d="M91.3799 36.7245V17.6665H98.6298C103.908 17.6665 107.106 21.0787 107.106 27.2095C107.106 33.3403 103.961 36.7255 98.6828 36.7255H91.3789L91.3799 36.7245ZM98.4977 34.1921C102.923 34.1921 104.069 30.887 104.069 27.2085C104.069 23.53 102.923 20.1979 98.4977 20.1979H94.3127V34.1921H98.4977Z" fill="white"/>
<path d="M39.2834 10.1308C38.2153 11.7802 37.4779 13.5607 37.0879 15.3682C35.947 13.8997 34.515 12.6153 32.852 11.6024C32.773 11.5514 32.6742 11.5472 32.5899 11.5868C32.5067 11.6304 32.4495 11.7095 32.4381 11.8C32.1989 13.7448 32.3081 15.6656 32.7355 17.4648C31.0798 16.6495 29.2297 16.116 27.2734 15.9173C27.1642 15.9059 27.0644 15.961 27.0114 16.0494C26.9479 16.1201 26.9219 16.221 26.9542 16.3198C27.5792 18.1804 28.51 19.8631 29.6769 21.2931C27.8267 21.2723 25.9318 21.5926 24.0952 22.2613C24.0078 22.2925 23.9434 22.3674 23.9215 22.4589C23.9018 22.5494 23.9288 22.6461 23.9943 22.7137C25.3754 24.1156 26.9438 25.2295 28.6026 26.0178C26.9417 26.804 25.3713 27.9158 23.9881 29.3167C23.9153 29.3895 23.8945 29.4956 23.9215 29.5892C23.9319 29.6911 23.9985 29.7816 24.1004 29.818C25.9381 30.4825 27.833 30.7997 29.6831 30.7758C28.5194 32.2068 27.5917 33.8916 26.9698 35.7543C26.9406 35.8416 26.9583 35.9394 27.0155 36.0132C27.0727 36.086 27.1653 36.1235 27.2558 36.1141C29.212 35.9186 31.0642 35.3892 32.721 34.576C32.2904 36.3741 32.1781 38.295 32.4152 40.2388C32.4277 40.3459 32.4994 40.4291 32.593 40.4634C32.6773 40.5144 32.7865 40.5196 32.878 40.4634C34.5389 39.4463 35.9689 38.1598 37.1066 36.6903C37.4998 38.4968 38.2402 40.2752 39.3114 41.9215C39.3603 41.9984 39.4477 42.0463 39.5402 42.0463C39.6328 42.0463 39.7202 41.9995 39.7711 41.9215C40.8423 40.2752 41.5828 38.4978 41.9759 36.6913C43.1137 38.1598 44.5437 39.4463 46.2046 40.4634C46.2971 40.5196 46.4084 40.5133 46.4937 40.4613C46.5842 40.426 46.6528 40.3438 46.6663 40.2388C46.7495 39.57 46.789 38.9013 46.789 38.2399C46.789 36.9846 46.6434 35.7543 46.3616 34.577C48.0183 35.3892 49.8695 35.9196 51.8258 36.1152C51.9162 36.1245 52.0078 36.0881 52.066 36.0143C52.1055 35.9654 52.1253 35.904 52.1253 35.8427C52.1253 35.8136 52.1211 35.7834 52.1138 35.7553C51.4909 33.8927 50.5622 32.2079 49.3984 30.7768C51.2486 30.8008 53.1455 30.4836 54.9832 29.819C55.0882 29.7816 55.1569 29.6848 55.1631 29.5788C55.1683 29.5569 55.1725 29.534 55.1725 29.5112C55.1725 29.4425 55.1486 29.3708 55.0934 29.3177C53.7113 27.9168 52.1409 26.804 50.479 26.0188C52.1388 25.2305 53.7061 24.1167 55.0893 22.7148C55.1402 22.6638 55.1683 22.592 55.1683 22.5213C55.1683 22.5016 55.1642 22.4818 55.161 22.462C55.1413 22.3716 55.0737 22.2967 54.9874 22.2644C53.1528 21.5957 51.259 21.2744 49.4088 21.2952C50.5746 19.8662 51.5054 18.1824 52.1305 16.3219C52.1378 16.2948 52.1419 16.2626 52.1419 16.2345C52.1419 16.168 52.117 16.1045 52.0743 16.0546C52.0223 15.9641 51.9204 15.9069 51.8102 15.9184C49.855 16.118 48.0038 16.6516 46.3481 17.4669C46.6258 16.2959 46.7693 15.0739 46.7693 13.8259C46.7693 13.1592 46.7256 12.4801 46.6424 11.801C46.631 11.7095 46.5748 11.6315 46.4926 11.5878C46.4053 11.5483 46.3075 11.5524 46.2285 11.6034C44.5655 12.6153 43.1334 13.8997 41.9926 15.3661C41.6015 13.5576 40.8642 11.7781 39.7961 10.1308C39.7399 10.0424 39.6401 9.99972 39.5413 10.0091C39.4435 9.99972 39.3426 10.0424 39.2854 10.1308H39.2834ZM32.9342 12.3012C34.5274 13.334 35.8867 14.6288 36.9496 16.0962C36.7 17.6208 36.6979 19.1548 36.9548 20.6379C35.9522 19.5147 34.7438 18.561 33.3866 17.806C32.9134 16.0692 32.7522 14.2003 32.9342 12.3002V12.3012ZM27.6 16.5091C29.5188 16.7504 31.3242 17.3234 32.9217 18.1783C33.3595 19.6873 34.0262 21.0965 34.9081 22.3435C33.4968 21.7559 31.9763 21.4137 30.4142 21.318C29.2203 19.9536 28.2594 18.3239 27.6 16.508V16.5091ZM24.6922 22.6326C26.4986 22.0304 28.3561 21.7725 30.1574 21.8547C31.1942 23.0018 32.3923 23.9607 33.7121 24.6835C32.2124 24.7677 30.7127 25.1213 29.2702 25.7193C27.6312 25.0059 26.0743 23.9638 24.6922 22.6326ZM24.6526 29.429C26.0442 28.0822 27.6156 27.0318 29.2702 26.3142C30.7231 26.9184 32.2342 27.2762 33.7454 27.3594C32.4131 28.0853 31.2046 29.0536 30.1605 30.2132C28.3457 30.2974 26.4726 30.0374 24.6516 29.429H24.6526ZM27.6312 35.5182C28.2864 33.719 29.2401 32.1018 30.4215 30.7467C31.9732 30.65 33.4812 30.3099 34.8831 29.7285C34.0085 30.9661 33.345 32.3639 32.9082 33.8604C31.3222 34.706 29.5323 35.2759 27.6312 35.5182ZM32.9154 39.7884C32.7293 37.8707 32.8905 35.9841 33.372 34.2328C34.7406 33.4746 35.9574 32.5157 36.9673 31.3832C36.7062 32.8776 36.7094 34.4231 36.9642 35.9592C35.895 37.4412 34.5243 38.7464 32.9154 39.7874V39.7884ZM39.5371 41.258C38.5356 39.6231 37.8648 37.8655 37.5424 36.0912C38.4316 34.8172 39.1097 33.4226 39.5371 31.9583C39.9646 33.4226 40.6416 34.8172 41.5308 36.0912C41.2084 37.8665 40.5376 39.6231 39.5361 41.258H39.5371ZM46.1619 39.7874C44.553 38.7474 43.1823 37.4422 42.1132 35.9623C42.2401 35.1958 42.3046 34.4272 42.3046 33.6628C42.3046 32.8984 42.238 32.132 42.1059 31.3821C43.1168 32.5157 44.3357 33.4756 45.7064 34.2338C46.1869 35.9841 46.3481 37.8696 46.1609 39.7874H46.1619ZM51.4482 35.5182C49.5461 35.2759 47.7562 34.707 46.1702 33.8604C45.7334 32.3649 45.0699 30.9672 44.1974 29.7296C45.5993 30.3099 47.1073 30.65 48.6579 30.7467C49.8394 32.1018 50.793 33.718 51.4482 35.5182ZM54.4247 29.429C52.6026 30.0384 50.7296 30.2974 48.9148 30.2121C47.8706 29.0536 46.6632 28.0864 45.333 27.3594C46.8442 27.2762 48.3563 26.9184 49.8082 26.3142C51.4618 27.0308 53.0332 28.0822 54.4247 29.428V29.429ZM49.0656 26.0178C47.4827 26.6023 45.8395 26.8831 44.2171 26.8238C44.0798 26.8186 43.9644 26.9164 43.9384 27.0495C43.9082 27.1764 43.9706 27.3116 44.0944 27.3646C45.5837 28.0115 46.9398 28.962 48.1057 30.1518C46.451 29.9781 44.8588 29.5143 43.4132 28.7603C43.3976 28.753 43.382 28.7468 43.3664 28.7416C43.3654 28.7416 43.3633 28.7405 43.3622 28.7405C43.2832 28.7187 43.1958 28.7322 43.1262 28.7832C43.121 28.7863 43.1158 28.7894 43.1106 28.7936C43.1106 28.7936 43.1106 28.7936 43.1095 28.7936C43.1064 28.7967 43.1033 28.7998 43.1002 28.8029C43.0898 28.8123 43.0794 28.8216 43.071 28.8331C43.071 28.8341 43.069 28.8362 43.0679 28.8372C43.0586 28.8497 43.0492 28.8622 43.0419 28.8768C42.9889 28.9808 43.0066 29.1004 43.0773 29.1825C44.1308 30.4232 44.9358 31.8772 45.4693 33.4621C44.0403 32.5916 42.8027 31.4851 41.8334 30.1809C41.7502 30.0696 41.6015 30.0395 41.483 30.1029C41.3644 30.158 41.2989 30.2912 41.3342 30.4232C41.7534 31.9905 41.8542 33.6389 41.6535 35.2873C40.7643 33.8937 40.132 32.3649 39.8086 30.7685C39.8086 30.7664 39.8086 30.7654 39.8086 30.7644C39.8086 30.7633 39.8086 30.7612 39.8086 30.7602C39.8086 30.7581 39.8075 30.756 39.8065 30.754C39.8034 30.7404 39.7992 30.7269 39.794 30.7144C39.7909 30.7072 39.7878 30.7009 39.7846 30.6947C39.7805 30.6864 39.7763 30.6791 39.7722 30.6718C39.768 30.6645 39.7628 30.6572 39.7576 30.65C39.7534 30.6437 39.7482 30.6385 39.7441 30.6333C39.7378 30.626 39.7316 30.6198 39.7243 30.6125C39.7191 30.6084 39.715 30.6042 39.7098 30.6011C39.7014 30.5948 39.6931 30.5886 39.6848 30.5824C39.6817 30.5803 39.6775 30.5792 39.6744 30.5772C39.6338 30.5543 39.5881 30.5408 39.5392 30.5408C39.4113 30.5408 39.2979 30.6302 39.2698 30.7592C38.9464 32.3587 38.313 33.8906 37.4218 35.2873C37.221 33.6389 37.3219 31.9905 37.7421 30.4232C37.7774 30.2922 37.7098 30.156 37.5892 30.1019C37.4727 30.0395 37.324 30.0707 37.2418 30.1809C36.2736 31.4851 35.037 32.5916 33.6091 33.4621C34.1437 31.8782 34.9476 30.4232 36.0011 29.1825C36.0032 29.1804 36.0042 29.1784 36.0053 29.1763C36.0115 29.169 36.0157 29.1617 36.0209 29.1544C36.0261 29.1461 36.0313 29.1368 36.0354 29.1284C36.0396 29.1212 36.0427 29.1139 36.0458 29.1066C36.0479 29.1004 36.05 29.0952 36.0521 29.0889C36.0552 29.0806 36.0573 29.0712 36.0594 29.0629C36.0604 29.0577 36.0614 29.0536 36.0625 29.0484C36.0646 29.0348 36.0656 29.0203 36.0656 29.0057C36.0656 28.986 36.0635 28.9652 36.0583 28.9454C36.0562 28.9381 36.0542 28.9319 36.051 28.9246C36.0469 28.91 36.0417 28.8955 36.0344 28.882C36.0344 28.882 36.0344 28.8799 36.0334 28.8788C36.0323 28.8757 36.0292 28.8736 36.0282 28.8705C36.0126 28.8424 35.9938 28.8164 35.9689 28.7956C35.8794 28.7197 35.7567 28.7114 35.661 28.7634C34.2175 29.5164 32.6263 29.9802 30.9717 30.1528C32.1375 28.9631 33.4937 28.0115 34.983 27.3646C35.1078 27.3116 35.1691 27.1784 35.14 27.0516C35.1171 26.9174 35.0006 26.8186 34.8613 26.8238C33.2389 26.8841 31.5957 26.6023 30.0138 26.0178C31.5967 25.4364 33.241 25.1588 34.8634 25.2212C34.8634 25.2212 34.8644 25.2212 34.8654 25.2212C34.879 25.2212 34.8935 25.2212 34.907 25.218C34.9112 25.218 34.9164 25.218 34.9206 25.217C34.9351 25.2149 34.9497 25.2097 34.9632 25.2056C34.9663 25.2056 34.9684 25.2045 34.9715 25.2035C35.0381 25.1785 35.0953 25.1276 35.1265 25.0579C35.1317 25.0464 35.1338 25.035 35.1369 25.0236C35.1379 25.0194 35.14 25.0152 35.141 25.01C35.1431 24.9996 35.1442 24.9892 35.1452 24.9788C35.1452 24.9716 35.1483 24.9653 35.1483 24.9591V24.9476C35.1483 24.931 35.1462 24.9154 35.1431 24.8988C35.1431 24.8946 35.141 24.8915 35.141 24.8873C35.1379 24.8738 35.1338 24.8603 35.1286 24.8468C35.1286 24.8457 35.1275 24.8436 35.1265 24.8426C35.1005 24.7792 35.0506 24.7251 34.9819 24.6949C33.4926 24.0512 32.1354 23.1027 30.9686 21.916C32.6232 22.0866 34.2154 22.5494 35.661 23.3013C35.7796 23.3627 35.9221 23.3273 36.0022 23.2264C36.0926 23.1266 36.0968 22.9716 36.0074 22.8666C34.9559 21.6238 34.1541 20.1668 33.6237 18.5797C35.0506 19.4523 36.285 20.562 37.2512 21.8703C37.3417 21.9909 37.5133 22.0159 37.636 21.9254C37.6641 21.9056 37.6849 21.8807 37.7026 21.8536C37.7057 21.8484 37.7098 21.8432 37.713 21.838C37.7182 21.8297 37.7213 21.8204 37.7254 21.811C37.7296 21.8006 37.7338 21.7892 37.7369 21.7777C37.739 21.7715 37.74 21.7652 37.741 21.759C37.7442 21.7455 37.7452 21.7309 37.7462 21.7164C37.7462 21.7122 37.7473 21.708 37.7473 21.7039C37.7473 21.7008 37.7473 21.6976 37.7473 21.6956C37.7473 21.6904 37.7473 21.6862 37.7462 21.681C37.7452 21.6654 37.7421 21.6508 37.7379 21.6352C37.7379 21.6352 37.7379 21.6342 37.7379 21.6332C37.7379 21.63 37.7369 21.6269 37.7358 21.6238C37.7358 21.6228 37.7358 21.6207 37.7348 21.6196C37.3146 20.0576 37.2127 18.4123 37.4103 16.768C38.3037 18.1637 38.9391 19.6946 39.2657 21.2941C39.2938 21.4283 39.4123 21.5177 39.5423 21.5156C39.6734 21.5177 39.793 21.4293 39.82 21.2941C40.1466 19.6946 40.781 18.1637 41.6743 16.7691C41.873 18.4175 41.769 20.0669 41.3478 21.6342C41.3478 21.6342 41.3478 21.6352 41.3478 21.6363C41.3197 21.7413 41.355 21.8568 41.4486 21.9264C41.5714 22.0169 41.743 21.992 41.8334 21.8713C42.7996 20.5651 44.0351 19.4554 45.463 18.5818C44.9316 20.1678 44.1298 21.6248 43.0773 22.8676C42.9868 22.9727 42.992 23.1276 43.0825 23.2275C43.1615 23.3284 43.305 23.3627 43.4226 23.3013C44.8702 22.5494 46.4635 22.0866 48.1192 21.916C46.9513 23.1037 45.593 24.0522 44.1038 24.697C44.0715 24.7105 44.0424 24.7303 44.0185 24.7552C43.9405 24.8332 43.9134 24.9518 43.9592 25.0579C43.9748 25.0932 43.9977 25.1234 44.0247 25.1484C44.0767 25.1972 44.1474 25.2274 44.2234 25.2243C45.8458 25.1608 47.489 25.4375 49.0718 26.0188L49.0656 26.0178ZM54.3852 22.6326C53.0051 23.9638 51.4472 25.0059 49.8071 25.7193C48.3646 25.1224 46.865 24.7688 45.3653 24.6845C46.6861 23.9628 47.8852 23.0028 48.9231 21.8547C50.7234 21.7736 52.5787 22.0304 54.3852 22.6326ZM51.4794 16.5091C50.8222 18.3249 49.8602 19.9546 48.6673 21.3191C47.1031 21.4148 45.5826 21.7559 44.1693 22.3435C45.0522 21.0976 45.7199 19.6884 46.1578 18.1793C47.7552 17.3244 49.5606 16.7504 51.4794 16.5091ZM46.1432 12.3012C46.3262 14.2013 46.1661 16.0712 45.6918 17.808C44.3336 18.5641 43.1251 19.5178 42.1205 20.641C42.2505 19.8953 42.315 19.1372 42.315 18.3717C42.315 17.6063 42.2515 16.8544 42.1278 16.0952C43.1896 14.6277 44.5489 13.3329 46.1422 12.3012H46.1432ZM41.5495 15.962C40.651 17.2454 39.9677 18.6525 39.5382 20.1304C39.1086 18.6515 38.4243 17.2454 37.5258 15.962C37.8482 14.1722 38.5252 12.4 39.5382 10.7527C40.5501 12.4 41.2271 14.1712 41.5495 15.961V15.962Z" fill="white"/>
<path d="M39.5393 28.128C40.7002 28.128 41.6412 27.187 41.6412 26.0262C41.6412 24.8653 40.7002 23.9243 39.5393 23.9243C38.3785 23.9243 37.4375 24.8653 37.4375 26.0262C37.4375 27.187 38.3785 28.128 39.5393 28.128Z" fill="white"/>
<defs>
<linearGradient id="paint0_linear_153_115" x1="0" y1="26" x2="131" y2="26" gradientUnits="userSpaceOnUse">
<stop stop-color="#E36D2D"/>
<stop offset="1" stop-color="#A22208"/>
</linearGradient>
</defs>
</svg>
